<svg width="264" height="280" xmlns="http://www.w3.org/2000/svg" xmlns:xlink="http://www.w3.org/1999/xlink"><defs><path d="M12 160c0 66.274 53.726 120 120 120s120-53.726 120-120h12V0H0v160h12z" id="c"/><path d="M124 144.611V163h4c39.765 0 72 32.235 72 72v9H0v-9c0-39.765 32.235-72 72-72h4v-18.389c-17.237-8.189-29.628-24.924-31.695-44.73C38.48 99.058 34 94.052 34 88V74c0-5.946 4.325-10.882 10-11.834V56c0-30.928 25.072-56 56-56s56 25.072 56 56v6.166c5.675.952 10 5.888 10 11.834v14c0 6.052-4.48 11.058-10.305 11.881-2.067 19.806-14.458 36.541-31.695 44.73z" id="e"/><circle id="a" cx="120" cy="120" r="120"/></defs><g fill="none" fill-rule="evenodd"><g transform="translate(12 40)"><mask id="b" fill="#fff"><use xlink:href="#a"/></mask><use fill="#E6E6E6" xlink:href="#a"/><g mask="url(#b)" fill="#65C9FF"><path d="M0 0h240v240H0z"/></g></g><mask id="d" fill="#fff"><use xlink:href="#c"/></mask><g mask="url(#d)"><g transform="translate(32 36)"><mask id="f" fill="#fff"><use xlink:href="#e"/></mask><use fill="#D0C6AC" xlink:href="#e"/><g mask="url(#f)" fill="#FFDBB4"><path d="M0 0h264v280H0z"/></g><path d="M156 79v23c0 30.928-25.072 56-56 56s-56-25.072-56-56V79v15c0 30.928 25.072 56 56 56s56-25.072 56-56V79z" fill-opacity=".1" fill="#000" mask="url(#f)"/></g><g transform="translate(0 170)"><defs><path d="M165.624 29.268C202.76 32.138 232 63.18 232 101.052V110H32v-8.948c0-38.217 29.775-69.48 67.393-71.855A14.107 14.107 0 0099 32.5C99 44.374 113.998 54 132.5 54c18.502 0 33.5-9.626 33.5-21.5 0-1.098-.128-2.178-.376-3.232z" id="g"/></defs><mask id="h" fill="#fff"><use xlink:href="#g"/></mask><use fill="#E6E6E6" xlink:href="#g"/><g mask="url(#h)" fill="#25557C"><path d="M0 0h264v110H0z"/></g><g fill="#FFF" mask="url(#h)"><path d="M140.78 87.737c-2.389 2.656-4.857 5.243-7.335 7.82.985-3.553 1.74-7.578 3.204-10.958.417-.962.1-1.084.927-1.493.609-.301 2.078.043 2.807.062 1.557.039 3.15.192 4.696-.05a221.739 221.739 0 00-4.299 4.619m-15.264 4.061c-2.699-3.282-5.384-6.568-8.658-9.317 1.289.137 2.696-.043 3.958.206 1.944.384 1.837.99 2.82 2.959 1.45 2.906 2.889 5.789 4.05 8.823-.711-.9-1.441-1.785-2.17-2.67m-9.098-12.532c.963-1.575 1.144-2.972 2.92-3.78 2.06-.939 5.3-.742 7.488-.916-1.37 1.523-3.037 3.103-3.604 5.122-.874-1.718-1.962-3.174-3.67-4.17-.215-.107 1.158 4.55 1.338 4.87-1.716-.096-3.522-.408-5.225-.092l.753-1.034m16.406-5.008c1.591.036 3.17.16 4.74.42-1.267 1.674-1.649 3.631-2.099 5.63-.478-2.258-2.209-4.362-3.734-6.048l1.093-.002m-3.498 1.074c.234-.158 4.457 5.086 5.066 5.556-3.312-.008-6.618-.17-9.926-.315 1.907-1.487 3.023-3.688 4.86-5.24m2.686 17.095c-.401 1.349-.777 2.708-1.214 4.047-1.555-4.732-3.862-9.188-6.008-13.674 3.34.088 6.676.209 10.016.256-.82 3.158-1.862 6.245-2.794 9.37m7.23-17.462c1.277 1.128 3.097 3.44 3.686 4.217a9.7 9.7 0 00.179.23c.21.261.966 1.255 1.263 1.644-2.227-.226-4.545-.13-6.78-.15.498-2.054 1.104-4.012.584-6.128.357.057.713.12 1.068.187m7.648 5.617c-2.158-2.676-4.37-7.258-7.864-8.077-3.472-.814-7.548-.454-11.074-.23-3.075.194-8.083-.204-10.795 1.593-1.393.923-2.425 3.005-2.908 4.551-.434 1.393.266 2.285-1.246 2.285-.096 0 2.504 3.673 2.81 3.962 2.272 2.14 4.444 4.202 6.457 6.597 2.835 3.374 5.405 8.338 9.145 9.736-.686-.339 2.792-2.967 3.21-3.419 2.11-2.288 4.246-4.554 6.372-6.83 1.938-2.073 4.05-4.03 5.93-6.15 1.435-1.619 1.439-2.175-.037-4.018M112.999 72c.043.014-.909-2.045-.825-1.919-.475-.719-1.046-1.24-1.738-1.727-.728-.511-4.309-1.1-4.436-1.354 1.494 2.652 4.167 4.128 6.999 5M128.355 67.196A6.21 6.21 0 00129.15 69c.07.078.859-4.184.85-4.547-.012-.62-.387-4.452-1.185-4.452-1.337 0-.674 6.47-.459 7.196M154.97 65c-2.992 0-9.68 5.854-8.908 9 .005.01.447-.35.35-.283.02-.014.039-.028.057-.043 1.272-1.025 2.718-2.02 3.992-3.206.911-.85 1.987-1.612 2.816-2.54.085-.095 1.986-2.928 1.692-2.928"/></g></g><g fill="#000"><g transform="translate(78 134)"><defs><path d="M35.118 15.128C36.176 24.62 44.226 32 54 32c9.804 0 17.874-7.426 18.892-16.96.082-.767-.775-2.04-1.85-2.04H37.088c-1.08 0-2.075 1.178-1.97 2.128z" id="i"/></defs><mask id="j" fill="#fff"><use xlink:href="#i"/></mask><use fill-opacity=".7" xlink:href="#i"/><rect fill="#FFF" mask="url(#j)" x="39" y="2" width="31" height="16" rx="5"/><g mask="url(#j)" fill="#FF4F6D"><g transform="translate(38 24)"><circle cx="11" cy="11" r="11"/><circle cx="21" cy="11" r="11"/></g></g></g><path d="M120 130c0 4.418 5.373 8 12 8s12-3.582 12-8" fill-opacity=".16"/><g fill-opacity=".8" fill-rule="nonzero" fill="#FF5353"><path d="M111.958 100c-2.55 0-5.074 1.98-6.458 3.82-1.39-1.84-3.907-3.82-6.458-3.82-5.49 0-9.042 3.334-9.042 7.641 0 5.73 4.412 9.13 9.042 12.736 1.653 1.236 4.78 4.4 5.166 5.094.386.693 2.106.718 2.584 0 .477-.718 3.51-3.858 5.166-5.094 4.627-3.606 9.042-7.006 9.042-12.736 0-4.307-3.552-7.641-9.042-7.641zM164.958 100c-2.55 0-5.074 1.98-6.458 3.82-1.39-1.84-3.907-3.82-6.458-3.82-5.49 0-9.042 3.334-9.042 7.641 0 5.73 4.412 9.13 9.042 12.736 1.653 1.236 4.78 4.4 5.166 5.094.386.693 2.106.718 2.584 0 .477-.718 3.51-3.858 5.166-5.094 4.627-3.606 9.042-7.006 9.042-12.736 0-4.307-3.552-7.641-9.042-7.641z"/></g><g fill-opacity=".6"><path d="M98.766 83.578l.911-.402c5.242-2.081 13.188-1.209 18.046 1.123.567.272.18 1.153-.402 1.108-14.919-1.151-24.963 8.146-28.375 14.44-.101.187-.407.208-.482.034-2.308-5.319 4.45-13.985 10.302-16.303zM162.993 94.07c5.761.773 14.746 5.795 13.994 11.607-.024.19-.312.25-.436.091-2.487-3.188-21.712-7.872-28.714-6.894-.64.09-1.063-.571-.626-.984 3.744-3.535 10.62-4.518 15.782-3.82z"/></g></g><defs><path id="k" d="M0 0h264v280H0z"/><path d="M8.461 88.694C8.161 89.744 8 90.854 8 92v13c0 6.019 4.43 11.002 10.209 11.867 1.743 20.248 14.26 37.416 31.791 45.744V181h-4c-15.619 0-30.076 4.973-41.875 13.423A73.888 73.888 0 010 170V74C0 33.13 33.13 0 74 0s74 33.13 74 74v96a73.888 73.888 0 01-4.125 24.423C132.076 185.973 117.619 181 102 181h-4v-18.389c17.53-8.328 30.048-25.496 31.791-45.744C135.57 116.002 140 111.02 140 105V92c0-1.69-.349-3.297-.979-4.755-12.956-2.188-27.542-7.476-41.872-15.75-12.132-7.004-22.503-15.237-30.48-23.743 3.427 7.908 7.577 14.836 12.45 20.783-12.676-5.523-21.306-14.403-25.892-26.639a100.37 100.37 0 01-1.18 2.762c-9.84 22.1-26.456 38.024-43.586 44.036z" id="m"/></defs><mask id="l" fill="#fff"><use xlink:href="#k"/></mask><g mask="url(#l)"><g transform="translate(58 18)"><mask id="n" fill="#fff"><use xlink:href="#m"/></mask><use fill="#ECC797" xlink:href="#m"/><g mask="url(#n)" fill="#C93305"><path d="M0 0h264v280H0z"/></g></g><path d="M58 102.419v6.419c19.945-3.088 40.59-20.448 52.046-46.18.41-.92.803-1.84 1.18-2.762 4.006 10.686 11.095 18.812 21.27 24.378a78.41 78.41 0 004.622 6.261c-12.675-5.523-21.305-14.403-25.891-26.639-.378.922-.771 1.843-1.18 2.762C98.59 92.39 77.944 109.75 58 112.838v-10.419zm148-1.279v9.14c-14.953-.867-33.099-6.535-50.851-16.785-10.273-5.93-19.283-12.743-26.646-19.855a98.48 98.48 0 01-3.833-7.888c7.976 8.506 18.347 16.74 30.479 23.743 17.752 10.25 35.898 15.918 50.851 16.786v-5.14z" fill-opacity=".16" fill="#000"/><g transform="translate(61 85)"><defs><linearGradient x1="50%" y1="0%" x2="50%" y2="70.506%" id="q"><stop stop-color="#FFF" stop-opacity=".5" offset="0%"/><stop stop-opacity=".5" offset="100%"/></linearGradient><linearGradient x1="50%" y1="0%" x2="50%" y2="100%" id="s"><stop stop-color="#FFF" stop-opacity=".5" offset="0%"/><stop stop-opacity=".5" offset="70.506%"/></linearGradient><path d="M47.01 6.277c2.511.024 3.698.45 4.126 3.115.433 2.7.012 5.736-.488 8.395-.762 4.06-2.031 8.04-4.984 11.007-1.555 1.564-3.452 2.81-5.47 3.66-1.071.452-2.203.778-3.334 1.026-.33.072-3.154.468-1.422.267-4.041.47-8.425.45-11.8-2.168-3.74-2.901-6.301-7.493-7.427-12.066-.66-2.676-2.044-9.076.486-11.216 2.898-2.452 30.313-2.02 30.313-2.02z" id="p"/><path d="M78.92 6.275c-2.512.024-3.699.449-4.126 3.114-.434 2.7-.012 5.736.487 8.395.763 4.061 2.032 8.04 4.984 11.008 1.556 1.563 3.453 2.809 5.47 3.66 1.072.451 2.204.778 3.335 1.025.33.072 3.153.469 1.422.267 4.04.47 8.425.45 11.8-2.167 3.74-2.902 6.3-7.493 7.427-12.066.66-2.677 2.043-9.077-.486-11.217-2.898-2.451-30.314-2.02-30.314-2.02z" id="r"/><filter x="-.8%" y="-2.6%" width="101.6%" height="110.5%" filterUnits="objectBoundingBox" id="o"><feOffset dy="2" in="SourceAlpha" result="shadowOffsetOuter1"/><feColorMatrix values="0 0 0 0 0 0 0 0 0 0 0 0 0 0 0 0 0 0 0.1 0" in="shadowOffsetOuter1" result="shadowMatrixOuter1"/><feMerge><feMergeNode in="shadowMatrixOuter1"/><feMergeNode in="SourceGraphic"/></feMerge></filter></defs><g filter="url(#o)" transform="translate(8 8)"><use fill-opacity=".7" fill="#000" xlink:href="#p"/><use fill="url(#q)" style="mix-blend-mode:screen" xlink:href="#p"/><use fill-opacity=".7" fill="#000" xlink:href="#r"/><use fill="url(#s)" style="mix-blend-mode:screen" xlink:href="#r"/><g fill="#252C2F"><path d="M46.25 7.275c2.37.022 3.492.417 3.896 2.89.41 2.506.011 5.322-.46 7.79-.721 3.768-1.92 7.46-4.708 10.214-1.47 1.45-3.261 2.606-5.167 3.395-1.012.42-2.081.722-3.15.952-.312.067-2.979.434-1.343.248-3.817.435-7.958.418-11.146-2.012-3.532-2.692-5.952-6.952-7.015-11.196-.623-2.483-1.93-8.422.459-10.407 2.737-2.274 28.633-1.874 28.633-1.874zM22.217.49c-5.44.188-9.071 1.144-11.755 6.58-4.917 9.96 3.5 24.899 12.89 28.97 10.976 4.76 23.24-.508 29.043-10.034 3.073-5.044 4.626-12.683 4.526-18.502C56.795.077 51.607-.13 45.51.034L22.218.49zM79.68 7.273c-2.371.022-3.492.416-3.896 2.89-.41 2.505-.012 5.322.46 7.79.72 3.767 1.919 7.459 4.708 10.213 1.47 1.45 3.261 2.606 5.167 3.396 1.012.419 2.08.722 3.15.951.312.067 2.978.435 1.343.248 3.817.436 7.958.418 11.145-2.011 3.533-2.692 5.952-6.952 7.016-11.196.623-2.483 1.93-8.422-.46-10.407-2.737-2.275-28.632-1.874-28.632-1.874zM103.713.488c5.44.187 9.071 1.144 11.754 6.579 4.918 9.96-3.5 24.9-12.889 28.97-10.977 4.76-23.24-.508-29.043-10.033C70.46 20.96 68.907 13.32 69.007 7.5 69.135.074 74.323-.132 80.42.031l23.29.457z"/><path d="M13.197 4.927c-3.412.191-7.31.237-10.507 1.712-3.385 1.562-3.908 5.1.36 5.587 1.92.22 3.845-.143 5.737-.481 1.55-.277 3.655-.187 5.12-.78 2.729-1.103 2.553-6.225-.71-6.038M112.735 4.927c3.412.191 7.31.237 10.507 1.712 3.384 1.562 3.907 5.1-.36 5.587-1.921.22-3.845-.143-5.738-.481-1.55-.277-3.654-.187-5.119-.78-2.73-1.103-2.554-6.225.71-6.038M73.11 7.013c-1.947-2.3-7.019-3.628-10.219-3.628-3.2 0-8.123 1.328-10.069 3.628-.981 1.16-1.015 2.711.686 3.438 2.118.906 4.01-.737 5.705-1.596 2.168-1.098 5.499-.978 7.506 0 1.708.833 3.586 2.502 5.704 1.596 1.701-.727 1.668-2.279.686-3.438"/></g></g></g></g></g></g></svg>