<svg width="264" height="280" xmlns="http://www.w3.org/2000/svg" xmlns:xlink="http://www.w3.org/1999/xlink"><defs><path d="M12 160c0 66.274 53.726 120 120 120s120-53.726 120-120h12V0H0v160h12z" id="c"/><path d="M124 144.611V163h4c39.765 0 72 32.235 72 72v9H0v-9c0-39.765 32.235-72 72-72h4v-18.389c-17.237-8.189-29.628-24.924-31.695-44.73C38.48 99.058 34 94.052 34 88V74c0-5.946 4.325-10.882 10-11.834V56c0-30.928 25.072-56 56-56s56 25.072 56 56v6.166c5.675.952 10 5.888 10 11.834v14c0 6.052-4.48 11.058-10.305 11.881-2.067 19.806-14.458 36.541-31.695 44.73z" id="e"/><circle id="a" cx="120" cy="120" r="120"/></defs><g fill="none" fill-rule="evenodd"><g transform="translate(12 40)"><mask id="b" fill="#fff"><use xlink:href="#a"/></mask><use fill="#E6E6E6" xlink:href="#a"/><g mask="url(#b)" fill="#65C9FF"><path d="M0 0h240v240H0z"/></g></g><mask id="d" fill="#fff"><use xlink:href="#c"/></mask><g mask="url(#d)"><g transform="translate(32 36)"><mask id="f" fill="#fff"><use xlink:href="#e"/></mask><use fill="#D0C6AC" xlink:href="#e"/><g mask="url(#f)" fill="#FD9841"><path d="M0 0h264v280H0z"/></g><path d="M156 79v23c0 30.928-25.072 56-56 56s-56-25.072-56-56V79v15c0 30.928 25.072 56 56 56s56-25.072 56-56V79z" fill-opacity=".1" fill="#000" mask="url(#f)"/></g><g transform="translate(0 170)"><defs><path d="M105.192 29.052H104c-39.765 0-72 32.235-72 72V110h200v-8.948c0-39.765-32.235-72-72-72h-1.192c.127.983.192 1.984.192 3 0 13.807-12.088 25-27 25s-27-11.193-27-25c0-1.016.065-2.017.192-3z" id="g"/></defs><mask id="h" fill="#fff"><use xlink:href="#g"/></mask><use fill="#E6E6E6" xlink:href="#g"/><g mask="url(#h)" fill="#262E33"><path d="M0 0h264v110H0z"/></g><path d="M100.785 29.122C62.512 30.804 32 62.365 32 101.052V110h69.362C97.96 97.92 96 83.709 96 68.5c0-14.327 1.74-27.769 4.785-39.378zM163.638 110H232v-8.948c0-38.345-29.975-69.69-67.771-71.878C167.265 40.77 169 54.194 169 68.5c0 15.209-1.96 29.42-5.362 41.5z" fill="#3A4C5A"/><path d="M181 86l9.556-7.167a4 4 0 014.856.043L202 84l-21 2z" fill="#E6E6E6"/><path d="M101 28c-4 19.333-2.333 46.667 5 82H90L76 74l6-9-6-6 19-30c2.028-.63 4.028-.964 6-1zM163 28c4 19.333 2.333 46.667-5 82h16l14-36-6-9 6-6-19-30c-2.028-.63-4.028-.964-6-1z" fill="#2F4351"/><path d="M156 21.539c6.772 4.597 11 11.117 11 18.349 0 7.4-4.428 14.057-11.48 18.668l-5.94-4.68-4.58.332 1-3.151-.078-.061C152.022 47.853 156 42.7 156 36.876V21.54zm-48 0c-6.772 4.597-11 11.117-11 18.349 0 7.4 4.428 14.057 11.48 18.668l5.94-4.68 4.58.332-1-3.151.078-.061C111.978 47.853 108 42.7 108 36.876V21.54z" fill="#F2F2F2"/></g><g fill="#000"><path d="M118.058 161.723c.65-7.03 6.644-11.723 13.942-11.723 7.342 0 13.363 4.75 13.953 11.848.031.378-.876.676-1.324.451-5.539-2.772-9.748-4.159-12.629-4.159-2.844 0-6.993 1.356-12.446 4.069-.507.252-1.534-.068-1.496-.486z" fill-opacity=".7"/><path d="M120 130c0 4.418 5.373 8 12 8s12-3.582 12-8" fill-opacity=".16"/><g fill-opacity=".6"><path d="M103.241 110.346a6 6 0 1010.699 2.8 1.998 1.998 0 00-.125-.739 7.509 7.509 0 00-.144-.372 6.007 6.007 0 00-1.646-2.484c-2.126-2.234-5.519-3.551-9.027-3.551-4.834 0-8.991 2.649-10.838 6.447-.54 1.111.387 1.853 1.278 1.125 2.436-1.993 5.82-3.228 9.56-3.228.08 0 .162 0 .243.002zM161.241 110.346a6 6 0 1010.699 2.8 1.998 1.998 0 00-.125-.739 7.509 7.509 0 00-.144-.372 6.007 6.007 0 00-1.646-2.484c-2.126-2.234-5.519-3.551-9.027-3.551-4.834 0-8.991 2.649-10.838 6.447-.54 1.111.387 1.853 1.278 1.125 2.436-1.993 5.82-3.228 9.56-3.228.08 0 .162 0 .243.002z"/></g><g fill-opacity=".6"><path d="M98.766 83.578l.911-.402c5.242-2.081 13.188-1.209 18.046 1.123.567.272.18 1.153-.402 1.108-14.919-1.151-24.963 8.146-28.375 14.44-.101.187-.407.208-.482.034-2.308-5.319 4.45-13.985 10.302-16.303zM165.234 83.578l-.911-.402c-5.242-2.081-13.188-1.209-18.046 1.123-.567.272-.18 1.153.402 1.108 14.919-1.151 24.963 8.146 28.375 14.44.101.187.407.208.482.034 2.308-5.319-4.45-13.985-10.302-16.303z"/></g></g><defs><path id="i" d="M0 0h264v280H0z"/><path d="M90.91 55.361h84.176c18.247-10.527 21.673-29.21 8.764-45.435-3.214-4.04-8.764 11.75-25.821 12.724-17.058.975-15.42-6.3-33.571-3.576-18.152 2.724-16.146 17.304-27.99 20.803-7.897 2.332-9.75 7.494-5.558 15.484z" id="m"/></defs><mask id="j" fill="#fff"><use xlink:href="#i"/></mask><g mask="url(#j)"><g transform="translate(-1)"><g transform="translate(49 72)"><defs><path d="M101.428 98.169c-2.513 2.294-5.19 3.325-8.575 2.604-.582-.124-2.957-4.538-8.853-4.538-5.897 0-8.27 4.414-8.853 4.538-3.385.721-6.062-.31-8.576-2.604-4.725-4.313-8.654-10.26-6.293-16.75 1.23-3.382 3.232-7.095 6.873-8.173 3.887-1.15 9.346-.002 13.264-.788 1.27-.254 2.656-.707 3.585-1.458.929.75 2.316 1.204 3.585 1.458 3.918.786 9.376-.362 13.264.788 3.64 1.078 5.642 4.79 6.873 8.173 2.361 6.49-1.568 12.437-6.294 16.75M140.081 26c-3.41 8.4-2.093 18.858-2.724 27.676-.513 7.167-2.02 17.91-8.384 22.539-3.255 2.367-9.179 6.345-13.431 5.235-2.927-.764-3.24-9.16-7.087-12.303-4.363-3.565-9.812-5.131-15.306-4.89-2.37.105-7.165.08-9.15 1.903-1.983-1.823-6.777-1.798-9.148-1.902-5.494-.242-10.943 1.324-15.306 4.889-3.847 3.143-4.16 11.54-7.087 12.303-4.252 1.11-10.176-2.868-13.431-5.235-6.365-4.63-7.87-15.372-8.384-22.54-.63-8.817.686-19.275-2.724-27.675-1.66 0-.565 16.129-.565 16.129v20.356c.032 15.288 9.581 38.17 30.754 46.908C63.286 111.53 75.015 115 84 115s20.714-3.14 25.892-5.277c21.173-8.737 30.722-31.95 30.754-47.238V42.13S141.74 26 140.081 26" id="k"/></defs><mask id="l" fill="#fff"><use xlink:href="#k"/></mask><use fill="#331B0C" xlink:href="#k"/><g mask="url(#l)" fill="#724133"><path d="M-32 0h264v244H-32z"/></g></g><mask id="n" fill="#fff"><use xlink:href="#m"/></mask><use fill="#252E32" xlink:href="#m"/><g mask="url(#n)" fill="#C93305"><path d="M0 0h264v280H0z"/></g><g transform="translate(62 85)"><defs><path d="M44.918 17.571c0 9.703-8.25 17.572-21.998 17.572h-2.75C6.423 35.143.923 27.27.923 17.57.923 7.866 2.207 0 21.455 0h2.931c19.248 0 20.532 7.866 20.532 17.571z" id="p"/><path d="M106.486 17.571c0 9.703-8.247 17.572-21.997 17.572h-2.75c-13.748 0-19.248-7.872-19.248-17.572C62.491 7.866 63.775 0 83.023 0h2.932c19.244 0 20.531 7.866 20.531 17.571z" id="r"/><linearGradient x1="50%" y1="0%" x2="50%" y2="100%" id="q"><stop stop-color="#FFF" stop-opacity=".5" offset="0%"/><stop stop-opacity=".5" offset="70.506%"/></linearGradient><filter x="-.8%" y="-2.4%" width="101.6%" height="109.8%" filterUnits="objectBoundingBox" id="o"><feOffset dy="2" in="SourceAlpha" result="shadowOffsetOuter1"/><feColorMatrix values="0 0 0 0 0 0 0 0 0 0 0 0 0 0 0 0 0 0 0.2 0" in="shadowOffsetOuter1" result="shadowMatrixOuter1"/><feMerge><feMergeNode in="shadowMatrixOuter1"/><feMergeNode in="SourceGraphic"/></feMerge></filter></defs><g filter="url(#o)" transform="translate(7 7)"><g fill-rule="evenodd"><g transform="translate(10.795 2.929)"><use fill-opacity=".7" fill="#000" xlink:href="#p"/><use fill="url(#q)" style="mix-blend-mode:screen" xlink:href="#p"/></g><g transform="translate(10.795 2.929)"><use fill-opacity=".7" fill="#000" xlink:href="#r"/><use fill="url(#q)" style="mix-blend-mode:screen" xlink:href="#r"/></g></g><path d="M33.716 41h-2.75c-13.888 0-22.18-7.664-22.18-20.5C8.787 10.127 10.6 0 32.25 0h2.932c21.651 0 23.463 10.127 23.463 20.5 0 12.069-10.25 20.5-24.93 20.5zM32.25 5.854c-17.6 0-17.6 6.464-17.6 14.646 0 6.68 2.83 14.643 16.316 14.643h2.75c11.226 0 19.066-6.021 19.066-14.643 0-8.182 0-14.646-17.6-14.646H32.25zM95.284 41h-2.75c-13.888 0-22.18-7.664-22.18-20.5 0-10.373 1.813-20.5 23.464-20.5h2.932c21.651 0 23.463 10.127 23.463 20.5 0 12.069-10.25 20.5-24.929 20.5zM93.818 5.854c-17.6 0-17.6 6.464-17.6 14.646 0 6.68 2.833 14.643 16.316 14.643h2.75c11.226 0 19.066-6.021 19.066-14.643 0-8.182 0-14.646-17.6-14.646h-2.932z" fill="#252C2F" fill-rule="nonzero"/><path d="M2.932 5.857C3.618 5.172 11.123 0 32.25 0c17.714 0 21.464 1.88 27.14 4.72l.415.21c.395.143 2.413.844 4.773.921a16.54 16.54 0 004.528-.881C75.584 1.748 81.926 0 96.75 0c21.127 0 28.632 5.172 29.318 5.857A2.928 2.928 0 01129 8.786v2.928c0 1.62-1.31 2.929-2.932 2.929 0 0-5.863 0-5.863 2.928 0 2.929-2.932-4.237-2.932-5.857V8.862c-3.576-1.4-9.976-3.005-20.523-3.005-11.75 0-17.602 1.131-22.622 3.247l.056.139-2.496 1.007 2.493 1.008-2.2 5.43-2.717-1.1a12.721 12.721 0 00-1.493-.457c-2.024-.51-4.106-.666-5.946-.28a7.735 7.735 0 00-1.877.642l-2.622 1.31-2.623-5.238 2.622-1.31.006-.003-2.512-1.015.08-.198C50.57 6.976 46.58 5.857 32.25 5.857c-10.546 0-16.947 1.604-20.523 3.004v2.853c0 1.62-2.932 8.786-2.932 5.857 0-2.928-5.863-2.928-5.863-2.928A2.93 2.93 0 010 11.714V8.786a2.93 2.93 0 012.932-2.929z" fill="#252C2F" fill-rule="nonzero"/></g></g></g></g></g></g></svg>