<svg width="264" height="280" xmlns="http://www.w3.org/2000/svg" xmlns:xlink="http://www.w3.org/1999/xlink"><defs><path d="M12 160c0 66.274 53.726 120 120 120s120-53.726 120-120h12V0H0v160h12z" id="c"/><path d="M124 144.611V163h4c39.765 0 72 32.235 72 72v9H0v-9c0-39.765 32.235-72 72-72h4v-18.389c-17.237-8.189-29.628-24.924-31.695-44.73C38.48 99.058 34 94.052 34 88V74c0-5.946 4.325-10.882 10-11.834V56c0-30.928 25.072-56 56-56s56 25.072 56 56v6.166c5.675.952 10 5.888 10 11.834v14c0 6.052-4.48 11.058-10.305 11.881-2.067 19.806-14.458 36.541-31.695 44.73z" id="e"/><circle id="a" cx="120" cy="120" r="120"/></defs><g fill="none" fill-rule="evenodd"><g transform="translate(12 40)"><mask id="b" fill="#fff"><use xlink:href="#a"/></mask><use fill="#E6E6E6" xlink:href="#a"/><g mask="url(#b)" fill="#65C9FF"><path d="M0 0h240v240H0z"/></g></g><mask id="d" fill="#fff"><use xlink:href="#c"/></mask><g mask="url(#d)"><g transform="translate(32 36)"><mask id="f" fill="#fff"><use xlink:href="#e"/></mask><use fill="#D0C6AC" xlink:href="#e"/><g mask="url(#f)" fill="#FD9841"><path d="M-32 0h264v244H-32z"/></g><path d="M156 79v23c0 30.928-25.072 56-56 56s-56-25.072-56-56V79v15c0 30.928 25.072 56 56 56s56-25.072 56-56V79z" fill-opacity=".1" fill="#000" mask="url(#f)"/></g><g transform="translate(0 170)"><defs><path d="M108 13.07c-17.919 2.006-31.72 7.482-31.996 21.575C50.146 45.568 32 71.165 32 100.999V110h200v-9c0-29.835-18.146-55.432-44.004-66.355-.276-14.093-14.077-19.57-31.996-21.574V32c0 13.255-10.745 24-24 24s-24-10.745-24-24V13.07z" id="g"/></defs><mask id="h" fill="#fff"><use xlink:href="#g"/></mask><use fill="#B7C1DB" xlink:href="#g"/><g mask="url(#h)" fill="#3C4F5C"><path d="M0 0h264v110H0z"/></g><path d="M102 61.74V110h-7V58.15a64.54 64.54 0 007 3.59zm67-3.59V98.5a3.5 3.5 0 11-7 0V61.74a64.54 64.54 0 007-3.59z" fill="#F4F4F4" mask="url(#h)"/><path d="M90.96 12.724C75.91 15.571 65.5 21.243 65.5 32.308 65.5 52.02 98.538 68 132 68s66.5-15.98 66.5-35.692c0-11.065-10.41-16.737-25.46-19.584 9.085 3.35 14.96 8.982 14.96 18.353C188 51.469 160.179 68 132 68S76 51.469 76 31.077c0-9.37 5.875-15.003 14.96-18.353z" fill-opacity=".16" fill="#000" mask="url(#h)"/></g><g fill="#000"><path d="M118 150c0 5.372 6.158 9 14 9s14-3.628 14-9c0-1.105-.95-2-2-2-1.293 0-1.87.905-2 2-1.242 2.938-4.317 4.716-10 5-5.683-.284-8.758-2.062-10-5-.13-1.095-.707-2-2-2-1.05 0-2 .895-2 2z" fill-opacity=".6" fill-rule="nonzero"/><path d="M120 130c0 4.418 5.373 8 12 8s12-3.582 12-8" fill-opacity=".16"/><g transform="translate(76 90)" fill-opacity=".6"><circle cx="30" cy="22" r="6"/><path d="M70.61 24.955c1.577-3.918 5.54-6.85 10.36-7.188 4.805-.335 9.124 1.999 11.24 5.637.627 1.081-.091 2.052-.928 1.428-2.592-1.93-6.156-3-10.008-2.731-3.731.26-7.02 1.729-9.312 3.887-.838.789-1.814.113-1.352-1.033z"/></g><g fill-rule="nonzero" fill-opacity=".6"><path d="M91.976 99.128c1.495-9.523 14.083-16.02 23.188-11.827a2 2 0 001.672-3.633c-11.487-5.29-26.9 2.664-28.812 14.84a2 2 0 103.952.62zM172.024 99.128c-1.495-9.523-14.082-16.02-23.187-11.827a2 2 0 01-1.673-3.633c11.487-5.29 26.9 2.664 28.812 14.84a2 2 0 01-3.952.62z"/></g></g><defs><path id="i" d="M0 0h264v280H0z"/><path d="M120 54H20v101c0 5.523-4.477 10-10 10s-10-4.477-10-10V44C0 19.7 19.7 0 44 0h52c24.3 0 44 19.7 44 44v111c0 5.523-4.477 10-10 10s-10-4.477-10-10V54z" id="j"/><rect id="l" x="74" y="50" width="118" height="36" rx="8"/></defs><g transform="translate(62 20)"><path d="M1 48h22.671v105.664c0 6.26-5.075 11.336-11.335 11.336C6.076 165 1 159.925 1 153.664V48zm115.329 0H139v105.664c0 6.26-5.075 11.336-11.336 11.336-6.26 0-11.335-5.075-11.335-11.336V48z" fill="#F4F4F4"/><mask id="k" fill="#fff"><use xlink:href="#j"/></mask><use fill="#D8D8D8" xlink:href="#j"/><g mask="url(#k)" fill="#FFDEB5"><path d="M0 0h264v280H0z"/></g></g><g transform="translate(-1)"><use fill="#000" filter="url(#l)" xlink:href="#l"/><use fill="#F4F4F4" xlink:href="#l"/></g><g transform="translate(48 72)"><defs><path d="M84 69.297c-6.792-3.586-16.422-4.148-21.611-2.165-5.775 2.205-10.884 8.451-19.75 5.696-.37-.114-.73.217-.619.58 1.374 4.51 9.008 7.599 11.602 7.7 11.34.442 20.473-8.278 30.378-8.947 9.906.67 19.04 9.389 30.379 8.947 2.594-.101 10.228-3.19 11.601-7.7.111-.363-.25-.694-.618-.58-8.867 2.755-13.976-3.49-19.75-5.696-5.19-1.983-14.82-1.42-21.612 2.165z" id="m"/></defs><mask id="n" fill="#fff"><use xlink:href="#m"/></mask><use fill="#28354B" xlink:href="#m"/><g mask="url(#n)" fill="#2C1B18"><path d="M-32 0h264v244H-32z"/></g></g><g transform="translate(61 85)"><defs><linearGradient x1="50%" y1="0%" x2="50%" y2="70.506%" id="q"><stop stop-color="#FFF" stop-opacity=".5" offset="0%"/><stop stop-opacity=".5" offset="100%"/></linearGradient><linearGradient x1="50%" y1="0%" x2="50%" y2="100%" id="s"><stop stop-color="#FFF" stop-opacity=".5" offset="0%"/><stop stop-opacity=".5" offset="70.506%"/></linearGradient><path d="M47.01 6.277c2.511.024 3.698.45 4.126 3.115.433 2.7.012 5.736-.488 8.395-.762 4.06-2.031 8.04-4.984 11.007-1.555 1.564-3.452 2.81-5.47 3.66-1.071.452-2.203.778-3.334 1.026-.33.072-3.154.468-1.422.267-4.041.47-8.425.45-11.8-2.168-3.74-2.901-6.301-7.493-7.427-12.066-.66-2.676-2.044-9.076.486-11.216 2.898-2.452 30.313-2.02 30.313-2.02z" id="p"/><path d="M78.92 6.275c-2.512.024-3.699.449-4.126 3.114-.434 2.7-.012 5.736.487 8.395.763 4.061 2.032 8.04 4.984 11.008 1.556 1.563 3.453 2.809 5.47 3.66 1.072.451 2.204.778 3.335 1.025.33.072 3.153.469 1.422.267 4.04.47 8.425.45 11.8-2.167 3.74-2.902 6.3-7.493 7.427-12.066.66-2.677 2.043-9.077-.486-11.217-2.898-2.451-30.314-2.02-30.314-2.02z" id="r"/><filter x="-.8%" y="-2.6%" width="101.6%" height="110.5%" filterUnits="objectBoundingBox" id="o"><feOffset dy="2" in="SourceAlpha" result="shadowOffsetOuter1"/><feColorMatrix values="0 0 0 0 0 0 0 0 0 0 0 0 0 0 0 0 0 0 0.1 0" in="shadowOffsetOuter1" result="shadowMatrixOuter1"/><feMerge><feMergeNode in="shadowMatrixOuter1"/><feMergeNode in="SourceGraphic"/></feMerge></filter></defs><g filter="url(#o)" transform="translate(8 8)"><use fill-opacity=".7" fill="#000" xlink:href="#p"/><use fill="url(#q)" xlink:href="#p" style="mix-blend-mode:screen"/><use fill-opacity=".7" fill="#000" xlink:href="#r"/><use fill="url(#s)" xlink:href="#r" style="mix-blend-mode:screen"/><g fill="#252C2F"><path d="M46.25 7.275c2.37.022 3.492.417 3.896 2.89.41 2.506.011 5.322-.46 7.79-.721 3.768-1.92 7.46-4.708 10.214-1.47 1.45-3.261 2.606-5.167 3.395-1.012.42-2.081.722-3.15.952-.312.067-2.979.434-1.343.248-3.817.435-7.958.418-11.146-2.012-3.532-2.692-5.952-6.952-7.015-11.196-.623-2.483-1.93-8.422.459-10.407 2.737-2.274 28.633-1.874 28.633-1.874zM22.217.49c-5.44.188-9.071 1.144-11.755 6.58-4.917 9.96 3.5 24.899 12.89 28.97 10.976 4.76 23.24-.508 29.043-10.034 3.073-5.044 4.626-12.683 4.526-18.502C56.795.077 51.607-.13 45.51.034L22.218.49zM79.68 7.273c-2.371.022-3.492.416-3.896 2.89-.41 2.505-.012 5.322.46 7.79.72 3.767 1.919 7.459 4.708 10.213 1.47 1.45 3.261 2.606 5.167 3.396 1.012.419 2.08.722 3.15.951.312.067 2.978.435 1.343.248 3.817.436 7.958.418 11.145-2.011 3.533-2.692 5.952-6.952 7.016-11.196.623-2.483 1.93-8.422-.46-10.407-2.737-2.275-28.632-1.874-28.632-1.874zM103.713.488c5.44.187 9.071 1.144 11.754 6.579 4.918 9.96-3.5 24.9-12.889 28.97-10.977 4.76-23.24-.508-29.043-10.033C70.46 20.96 68.907 13.32 69.007 7.5 69.135.074 74.323-.132 80.42.031l23.29.457z"/><path d="M13.197 4.927c-3.412.191-7.31.237-10.507 1.712-3.385 1.562-3.908 5.1.36 5.587 1.92.22 3.845-.143 5.737-.481 1.55-.277 3.655-.187 5.12-.78 2.729-1.103 2.553-6.225-.71-6.038M112.735 4.927c3.412.191 7.31.237 10.507 1.712 3.384 1.562 3.907 5.1-.36 5.587-1.921.22-3.845-.143-5.738-.481-1.55-.277-3.654-.187-5.119-.78-2.73-1.103-2.554-6.225.71-6.038M73.11 7.013c-1.947-2.3-7.019-3.628-10.219-3.628-3.2 0-8.123 1.328-10.069 3.628-.981 1.16-1.015 2.711.686 3.438 2.118.906 4.01-.737 5.705-1.596 2.168-1.098 5.499-.978 7.506 0 1.708.833 3.586 2.502 5.704 1.596 1.701-.727 1.668-2.279.686-3.438"/></g></g></g></g></g></svg>