<svg width="264" height="280" xmlns="http://www.w3.org/2000/svg" xmlns:xlink="http://www.w3.org/1999/xlink"><defs><path d="M12 160c0 66.274 53.726 120 120 120s120-53.726 120-120h12V0H0v160h12z" id="c"/><path d="M124 144.611V163h4c39.765 0 72 32.235 72 72v9H0v-9c0-39.765 32.235-72 72-72h4v-18.389c-17.237-8.189-29.628-24.924-31.695-44.73C38.48 99.058 34 94.052 34 88V74c0-5.946 4.325-10.882 10-11.834V56c0-30.928 25.072-56 56-56s56 25.072 56 56v6.166c5.675.952 10 5.888 10 11.834v14c0 6.052-4.48 11.058-10.305 11.881-2.067 19.806-14.458 36.541-31.695 44.73z" id="e"/><circle id="a" cx="120" cy="120" r="120"/></defs><g fill="none" fill-rule="evenodd"><g transform="translate(12 40)"><mask id="b" fill="#fff"><use xlink:href="#a"/></mask><use fill="#E6E6E6" xlink:href="#a"/><g mask="url(#b)" fill="#65C9FF"><path d="M0 0h240v240H0z"/></g></g><mask id="d" fill="#fff"><use xlink:href="#c"/></mask><g mask="url(#d)"><g transform="translate(32 36)"><mask id="f" fill="#fff"><use xlink:href="#e"/></mask><use fill="#D0C6AC" xlink:href="#e"/><g mask="url(#f)" fill="#FFDBB4"><path d="M-32 0h264v244H-32z"/></g><path d="M156 79v23c0 30.928-25.072 56-56 56s-56-25.072-56-56V79v15c0 30.928 25.072 56 56 56s56-25.072 56-56V79z" fill-opacity=".1" fill="#000" mask="url(#f)"/></g><g transform="translate(0 170)"><defs><path d="M105.192 29.052H104c-39.765 0-72 32.235-72 72V110h200v-8.948c0-39.765-32.235-72-72-72h-1.192c.127.983.192 1.984.192 3 0 13.807-12.088 25-27 25s-27-11.193-27-25c0-1.016.065-2.017.192-3z" id="g"/></defs><mask id="h" fill="#fff"><use xlink:href="#g"/></mask><use fill="#E6E6E6" xlink:href="#g"/><g mask="url(#h)" fill="#262E33"><path d="M0 0h264v110H0z"/></g><path d="M100.785 29.122C62.512 30.804 32 62.365 32 101.052V110h69.362C97.96 97.92 96 83.709 96 68.5c0-14.327 1.74-27.769 4.785-39.378zM163.638 110H232v-8.948c0-38.345-29.975-69.69-67.771-71.878C167.265 40.77 169 54.194 169 68.5c0 15.209-1.96 29.42-5.362 41.5z" fill="#3A4C5A"/><path d="M181 86l9.556-7.167a4 4 0 014.856.043L202 84l-21 2z" fill="#E6E6E6"/><path d="M101 28c-4 19.333-2.333 46.667 5 82H90L76 74l6-9-6-6 19-30c2.028-.63 4.028-.964 6-1zM163 28c4 19.333 2.333 46.667-5 82h16l14-36-6-9 6-6-19-30c-2.028-.63-4.028-.964-6-1z" fill="#2F4351"/><path d="M156 21.539c6.772 4.597 11 11.117 11 18.349 0 7.4-4.428 14.057-11.48 18.668l-5.94-4.68-4.58.332 1-3.151-.078-.061C152.022 47.853 156 42.7 156 36.876V21.54zm-48 0c-6.772 4.597-11 11.117-11 18.349 0 7.4 4.428 14.057 11.48 18.668l5.94-4.68 4.58.332-1-3.151.078-.061C111.978 47.853 108 42.7 108 36.876V21.54z" fill="#F2F2F2"/></g><g fill="#000"><rect x="42" y="18" width="24" height="6" rx="3" transform="translate(78 134)" fill-opacity=".7"/><path d="M120 130c0 4.418 5.373 8 12 8s12-3.582 12-8" fill-opacity=".16"/><g fill-opacity=".6" fill-rule="nonzero"><path d="M105 115.2l5.5 5.5c.5.4 1.2.4 1.6 0l1.6-1.6c.4-.5.4-1.2 0-1.6l-5.5-5.5 5.5-5.5c.4-.5.4-1.2 0-1.6l-1.6-1.6c-.5-.4-1.2-.4-1.6 0l-5.5 5.5-5.5-5.5c-.5-.4-1.2-.4-1.6 0l-1.6 1.6c-.4.4-.4 1.1 0 1.6l5.5 5.5-5.5 5.5c-.4.5-.4 1.2 0 1.6l1.6 1.6c.5.4 1.2.4 1.6 0l5.5-5.5zM159 115.2l5.5 5.5c.5.4 1.2.4 1.6 0l1.6-1.6c.4-.5.4-1.2 0-1.6l-5.5-5.5 5.5-5.5c.4-.5.4-1.2 0-1.6l-1.6-1.6c-.5-.4-1.2-.4-1.6 0l-5.5 5.5-5.5-5.5c-.5-.4-1.2-.4-1.6 0l-1.6 1.6c-.4.4-.4 1.1 0 1.6l5.5 5.5-5.5 5.5c-.4.5-.4 1.2 0 1.6l1.6 1.6c.5.4 1.2.4 1.6 0l5.5-5.5z"/></g><g fill-opacity=".6" fill-rule="nonzero"><path d="M91.591 96.162c4.496-6.326 14.012-9.508 23.756-6.366a2 2 0 101.228-3.807c-11.408-3.68-22.74.11-28.244 7.856a2 2 0 103.26 2.317zM172.377 103.158c-3.914-5.509-14.647-8.598-23.892-6.328a2 2 0 01-.954-3.884c10.736-2.637 23.165.94 28.107 7.895a2 2 0 11-3.26 2.317z"/></g></g><defs><path id="i" d="M0 0h264v280H0z"/></defs><mask id="j" fill="#fff"><use xlink:href="#i"/></mask></g></g></svg>