<svg width="264" height="280" xmlns="http://www.w3.org/2000/svg" xmlns:xlink="http://www.w3.org/1999/xlink"><defs><path d="M12 160c0 66.274 53.726 120 120 120s120-53.726 120-120h12V0H0v160h12z" id="c"/><path d="M124 144.611V163h4c39.765 0 72 32.235 72 72v9H0v-9c0-39.765 32.235-72 72-72h4v-18.389c-17.237-8.189-29.628-24.924-31.695-44.73C38.48 99.058 34 94.052 34 88V74c0-5.946 4.325-10.882 10-11.834V56c0-30.928 25.072-56 56-56s56 25.072 56 56v6.166c5.675.952 10 5.888 10 11.834v14c0 6.052-4.48 11.058-10.305 11.881-2.067 19.806-14.458 36.541-31.695 44.73z" id="e"/><circle id="a" cx="120" cy="120" r="120"/></defs><g fill="none" fill-rule="evenodd"><g transform="translate(12 40)"><mask id="b" fill="#fff"><use xlink:href="#a"/></mask><use fill="#E6E6E6" xlink:href="#a"/><g mask="url(#b)" fill="#65C9FF"><path d="M0 0h240v240H0z"/></g></g><mask id="d" fill="#fff"><use xlink:href="#c"/></mask><g mask="url(#d)"><g transform="translate(32 36)"><mask id="f" fill="#fff"><use xlink:href="#e"/></mask><use fill="#D0C6AC" xlink:href="#e"/><g mask="url(#f)" fill="#FFDBB4"><path d="M0 0h264v280H0z"/></g><path d="M156 79v23c0 30.928-25.072 56-56 56s-56-25.072-56-56V79v15c0 30.928 25.072 56 56 56s56-25.072 56-56V79z" fill-opacity=".1" fill="#000" mask="url(#f)"/></g><g transform="translate(0 170)"><defs><path d="M133.96.295c36.976 3.03 66.04 34 66.04 71.757V81H0v-8.948C0 33.952 29.592 2.765 67.045.22 67.015.593 67 .97 67 1.348c0 11.863 14.998 21.48 33.5 21.48 18.502 0 33.5-9.617 33.5-21.48 0-.353-.013-.704-.04-1.053z" id="g"/></defs><g transform="translate(32 29)"><mask id="h" fill="#fff"><use xlink:href="#g"/></mask><use fill="#E6E6E6" xlink:href="#g"/><g mask="url(#h)" fill="#262E33"><path d="M-32-29h264V81H-32z"/></g><g opacity=".6" mask="url(#h)" fill-opacity=".16" fill="#000"><ellipse cx="40.5" cy="27.848" rx="39.635" ry="26.914" transform="translate(60 -25)"/></g></g><path d="M100.785 29.122C62.512 30.804 32 62.365 32 101.052V110h69.362C97.96 97.92 96 83.709 96 68.5c0-14.327 1.74-27.769 4.785-39.378zM163.638 110H232v-8.948c0-38.345-29.975-69.69-67.771-71.878C167.265 40.77 169 54.194 169 68.5c0 15.209-1.96 29.42-5.362 41.5z" fill="#3A4C5A"/><path d="M181 86l9.556-7.167a4 4 0 014.856.043L202 84l-21 2z" fill="#E6E6E6"/><path d="M101 28c-4 19.333-2.333 46.667 5 82H90L76 74l6-9-6-6 19-30c2.028-.63 4.028-.964 6-1zM163 28c4 19.333 2.333 46.667-5 82h16l14-36-6-9 6-6-19-30c-2.028-.63-4.028-.964-6-1z" fill="#2F4351"/></g><g fill="#000"><g transform="translate(78 134)"><defs><path d="M35.118 15.128C36.176 24.62 44.226 32 54 32c9.804 0 17.874-7.426 18.892-16.96.082-.767-.775-2.04-1.85-2.04H37.088c-1.08 0-2.075 1.178-1.97 2.128z" id="i"/></defs><mask id="j" fill="#fff"><use xlink:href="#i"/></mask><use fill-opacity=".7" xlink:href="#i"/><rect fill="#FFF" mask="url(#j)" x="39" y="2" width="31" height="16" rx="5"/><g mask="url(#j)" fill="#FF4F6D"><g transform="translate(38 24)"><circle cx="11" cy="11" r="11"/><circle cx="21" cy="11" r="11"/></g></g></g><path d="M120 130c0 4.418 5.373 8 12 8s12-3.582 12-8" fill-opacity=".16"/><g transform="translate(76 90)" fill-opacity=".6"><circle cx="30" cy="22" r="6"/><path d="M70.61 24.955c1.577-3.918 5.54-6.85 10.36-7.188 4.805-.335 9.124 1.999 11.24 5.637.627 1.081-.091 2.052-.928 1.428-2.592-1.93-6.156-3-10.008-2.731-3.731.26-7.02 1.729-9.312 3.887-.838.789-1.814.113-1.352-1.033z"/></g><g fill-opacity=".6"><path d="M114.66 93.09c-4.998.362-9.923.086-14.918-.122-3.83-.158-7.717-.681-11.374 1.012-.7.324-4.53 2.28-4.44 3.349.07.855 3.935 2.191 4.63 2.436 3.67 1.29 7.181.896 10.954.67 4.628-.278 9.236-.074 13.861-.214 3.116-.093 7.917-.62 9.457-4.398.464-1.137.105-3.413-.36-4.657-.185-.496-.72-.683-1.125-.397-1.45 1.023-4.261 2.146-6.685 2.321M149.34 93.09c4.998.362 9.923.086 14.918-.122 3.83-.158 7.717-.681 11.374 1.012.7.324 4.53 2.28 4.44 3.349-.07.855-3.935 2.191-4.63 2.436-3.67 1.29-7.181.896-10.954.67-4.628-.278-9.236-.074-13.861-.214-3.116-.093-7.917-.62-9.457-4.398-.464-1.137-.105-3.413.36-4.657.185-.496.72-.683 1.125-.397 1.45 1.023 4.261 2.146 6.685 2.321"/></g></g><defs><path id="k" d="M0 0h264v280H0z"/><path d="M156 180.611c17.53-8.328 30.048-25.496 31.791-45.744C193.57 134.002 198 129.02 198 123v-13c0-5.946-4.325-10.882-10-11.834V92a55.812 55.812 0 00-4.638-22.35C173.435 53 89.312 53.802 80.71 69.484A55.809 55.809 0 0076 92v6.166c-5.675.952-10 5.888-10 11.834v13c0 6.019 4.43 11.002 10.209 11.867 1.743 20.248 14.26 37.416 31.791 45.744V199h-4c-39.765 0-72 32.235-72 72v9h200v-9c0-39.765-32.235-72-72-72h-4v-18.389zM0 0h264v280H0V0z" id="m"/></defs><mask id="l" fill="#fff"><use xlink:href="#k"/></mask><g mask="url(#l)"><g><mask id="n" fill="#fff"><use xlink:href="#m"/></mask><path d="M123.182 2h18.636c18.791 0 35.049 13.08 39.072 31.436L190 75H75l9.11-41.564C88.133 15.08 104.39 2 123.182 2z" fill="#1F333C" mask="url(#n)"/><ellipse fill="#1F333C" mask="url(#n)" cx="132" cy="87.5" rx="122" ry="57.5"/><ellipse fill="#15232A" mask="url(#n)" cx="132" cy="82" rx="62" ry="25"/></g><g transform="translate(61 85)"><defs><filter x="-.8%" y="-2%" width="101.5%" height="108%" filterUnits="objectBoundingBox" id="o"><feOffset dy="2" in="SourceAlpha" result="shadowOffsetOuter1"/><feColorMatrix values="0 0 0 0 0 0 0 0 0 0 0 0 0 0 0 0 0 0 0.16 0" in="shadowOffsetOuter1" result="shadowMatrixOuter1"/><feMerge><feMergeNode in="shadowMatrixOuter1"/><feMergeNode in="SourceGraphic"/></feMerge></filter></defs><g filter="url(#o)" transform="translate(5 2)" fill-rule="nonzero"><path d="M66 11.111c-11.037 0-12.63-9.084-35.33-10.37C7.987-.283.816 6.449.777 11.11c.037 4.293-1.128 15.45 13.589 28.519 14.772 15.512 29.905 10.252 35.33 5.185C55.134 42.473 61.34 21.46 66 21.48c4.66.022 10.865 20.992 16.306 23.334 5.424 5.067 20.557 10.327 35.33-5.185 14.716-13.069 13.55-24.226 13.588-28.519-.04-4.662-7.21-11.394-29.895-10.37C78.63 2.027 77.037 11.11 66 11.11z" fill="#F4F4F4"/><path d="M55.13 21.481c.38-7.658-12.914-15.839-27.177-15.555-14.256.299-16.111 9.453-16.306 12.963-.349 8.133 8.367 26.415 24.459 25.926 16.091-.51 18.803-18.28 19.023-23.334zM76.87 21.481c-.38-7.658 12.914-15.839 27.177-15.555 14.256.299 16.111 9.453 16.306 12.963.349 8.133-8.367 26.415-24.459 25.926-16.091-.51-18.803-18.28-19.023-23.334z" fill="#2F383B"/></g></g></g></g></g></svg>