<svg width="264" height="280" xmlns="http://www.w3.org/2000/svg" xmlns:xlink="http://www.w3.org/1999/xlink"><defs><path d="M12 160c0 66.274 53.726 120 120 120s120-53.726 120-120h12V0H0v160h12z" id="c"/><path d="M124 144.611V163h4c39.765 0 72 32.235 72 72v9H0v-9c0-39.765 32.235-72 72-72h4v-18.389c-17.237-8.189-29.628-24.924-31.695-44.73C38.48 99.058 34 94.052 34 88V74c0-5.946 4.325-10.882 10-11.834V56c0-30.928 25.072-56 56-56s56 25.072 56 56v6.166c5.675.952 10 5.888 10 11.834v14c0 6.052-4.48 11.058-10.305 11.881-2.067 19.806-14.458 36.541-31.695 44.73z" id="e"/><circle id="a" cx="120" cy="120" r="120"/></defs><g fill="none" fill-rule="evenodd"><g transform="translate(12 40)"><mask id="b" fill="#fff"><use xlink:href="#a"/></mask><use fill="#E6E6E6" xlink:href="#a"/><g mask="url(#b)" fill="#65C9FF"><path d="M0 0h240v240H0z"/></g></g><mask id="d" fill="#fff"><use xlink:href="#c"/></mask><g mask="url(#d)"><g transform="translate(32 36)"><mask id="f" fill="#fff"><use xlink:href="#e"/></mask><use fill="#D0C6AC" xlink:href="#e"/><g mask="url(#f)" fill="#FD9841"><path d="M-32 0h264v244H-32z"/></g><path d="M156 79v23c0 30.928-25.072 56-56 56s-56-25.072-56-56V79v15c0 30.928 25.072 56 56 56s56-25.072 56-56V79z" fill-opacity=".1" fill="#000" mask="url(#f)"/></g><g transform="translate(0 170)"><defs><path d="M94 29.688V74h76V29.688a71.525 71.525 0 0126 8.944V110H68V38.632a71.525 71.525 0 0126-8.944z" id="g"/></defs><mask id="h" fill="#fff"><use xlink:href="#g"/></mask><use fill="#B7C1DB" xlink:href="#g"/><g mask="url(#h)" fill="#3C4F5C"><path d="M0 0h264v110H0z"/></g><circle fill="#F4F4F4" cx="81" cy="83" r="5"/><circle fill="#F4F4F4" cx="183" cy="83" r="5"/></g><g fill="#000"><g transform="translate(78 134)"><defs><path d="M34.008 12.602c1.12 10.49 4.227 19.392 19.988 19.398 15.762.006 18.92-8.958 19.998-19.495.087-.848-.82-1.505-1.957-1.505-6.686 0-9.367 1.495-18.048 1.5-8.68.005-13.232-1.5-17.897-1.5-1.143 0-2.196.552-2.084 1.602z" id="i"/><path d="M59.917 36H60a6 6 0 1012 0v-5a6 6 0 00-6-6H42a6 6 0 00-6 6v7a6 6 0 1012 0v-2h.083a6.002 6.002 0 0111.834 0z" id="k"/><filter x="-1.4%" y="-2.6%" width="102.8%" height="105.3%" filterUnits="objectBoundingBox" id="l"><feOffset dy="-1" in="SourceAlpha" result="shadowOffsetInner1"/><feComposite in="shadowOffsetInner1" in2="SourceAlpha" operator="arithmetic" k2="-1" k3="1" result="shadowInnerInner1"/><feColorMatrix values="0 0 0 0 0 0 0 0 0 0 0 0 0 0 0 0 0 0 0.1 0" in="shadowInnerInner1"/></filter></defs><mask id="j" fill="#fff"><use xlink:href="#i" transform="matrix(1 0 0 -1 0 43)"/></mask><use fill-opacity=".7" transform="matrix(1 0 0 -1 0 43)" xlink:href="#i"/><rect fill="#FFF" mask="url(#j)" x="39" width="31" height="16" rx="5"/><use fill="#88C553" xlink:href="#k"/><use filter="url(#l)" xlink:href="#k"/></g><path d="M120 130c0 4.418 5.373 8 12 8s12-3.582 12-8" fill-opacity=".16"/><g fill-opacity=".6"><path d="M92.16 112.447c1.847-3.798 6.004-6.447 10.838-6.447 4.816 0 8.961 2.63 10.817 6.407.552 1.122-.233 2.04-1.024 1.36-2.451-2.107-5.932-3.423-9.793-3.423-3.74 0-7.124 1.235-9.56 3.228-.891.728-1.818-.014-1.278-1.125zM150.16 112.447c1.847-3.798 6.004-6.447 10.838-6.447 4.816 0 8.961 2.63 10.817 6.407.552 1.122-.233 2.04-1.024 1.36-2.451-2.107-5.932-3.423-9.793-3.423-3.74 0-7.124 1.235-9.56 3.228-.891.728-1.818-.014-1.278-1.125z"/></g><g fill-opacity=".6" fill-rule="nonzero"><path d="M114.028 87.591c-1.48 8.389-14.09 14.18-23.238 10.432-1.015-.416-2.19.031-2.627.999-.436.968.033 2.09 1.048 2.505 11.444 4.69 26.835-2.38 28.762-13.303.183-1.039-.551-2.023-1.64-2.197-1.09-.175-2.122.525-2.305 1.564zM149.973 87.591c1.48 8.389 14.09 14.18 23.238 10.432 1.014-.416 2.19.031 2.627.999.436.968-.033 2.09-1.048 2.505-11.444 4.69-26.835-2.38-28.762-13.303-.183-1.039.551-2.023 1.64-2.197 1.09-.175 2.121.525 2.305 1.564z"/></g></g><defs><path id="m" d="M0 0h264v280H0z"/><path d="M156 180.611c17.53-8.328 30.048-25.496 31.791-45.744C193.57 134.002 198 129.02 198 123v-13c0-5.946-4.325-10.882-10-11.834V92a55.812 55.812 0 00-4.638-22.35C173.435 53 89.312 53.802 80.71 69.484A55.809 55.809 0 0076 92v6.166c-5.675.952-10 5.888-10 11.834v13c0 6.019 4.43 11.002 10.209 11.867 1.743 20.248 14.26 37.416 31.791 45.744V199h-4c-39.765 0-72 32.235-72 72v9h200v-9c0-39.765-32.235-72-72-72h-4v-18.389zM0 0h264v280H0V0z" id="o"/></defs><mask id="n" fill="#fff"><use xlink:href="#m"/></mask><g mask="url(#n)"><g><mask id="p" fill="#fff"><use xlink:href="#o"/></mask><path d="M123.182 2h18.636c18.791 0 35.049 13.08 39.072 31.436L190 75H75l9.11-41.564C88.133 15.08 104.39 2 123.182 2z" fill="#1F333C" mask="url(#p)"/><ellipse fill="#1F333C" mask="url(#p)" cx="132" cy="87.5" rx="122" ry="57.5"/><ellipse fill="#15232A" mask="url(#p)" cx="132" cy="82" rx="62" ry="25"/></g><g transform="translate(48 72)"><defs><path d="M65.18 77.737c2.183-1.632 15.227-2.258 17.578-3.648.734-.434 1.303-.873 1.742-1.309.439.436 1.009.875 1.742 1.31 2.351 1.389 15.395 2.015 17.578 3.647 2.21 1.654 3.824 5.448 3.647 8.414-.212 3.56-4.106 12.052-13.795 13.03-2.114-2.353-5.435-3.87-9.172-3.87-3.737 0-7.058 1.517-9.172 3.87-9.69-.978-13.583-9.47-13.795-13.03-.176-2.966 1.437-6.76 3.647-8.414M65.845 94.901l.017.007-.017-.007m79.018-38.916c-.389-5.955-1.585-11.833-2.629-17.699-.281-1.579-1.81-12.286-2.5-12.286-.232 9.11-1.032 18.08-2.064 27.14-.309 2.708-.632 5.416-.845 8.134-.171 2.196.135 4.848-.397 6.972-.679 2.706-4.08 5.232-6.725 6.165-6.6 2.326-12.105-7.303-17.742-10.12-7.318-3.656-19.897-4.527-27.38.239-7.645-4.766-20.224-3.895-27.542-.239-5.637 2.817-11.142 12.446-17.742 10.12-2.645-.933-6.047-3.459-6.725-6.165-.532-2.124-.226-4.776-.397-6.972-.213-2.718-.536-5.426-.845-8.135C30.298 44.08 29.497 35.11 29.265 26c-.689 0-2.218 10.707-2.5 12.286-1.043 5.866-2.24 11.744-2.627 17.7-.4 6.119.077 12.181 1.332 18.177.599 2.865 1.299 5.713 2.049 8.541.834 3.143-.32 9.262.053 12.488.707 6.104 3.582 18.008 6.811 23.259 1.561 2.538 3.39 4.123 5.433 6.168 1.967 1.97 2.788 5.021 4.91 7.118 3.956 3.908 9.72 6.234 15.64 6.806C65.677 143.05 74.506 146 84.5 146c9.995 0 18.823-2.95 24.135-7.457 5.919-.572 11.683-2.898 15.64-6.806 2.121-2.097 2.942-5.149 4.909-7.118 2.042-2.045 3.872-3.63 5.433-6.168 3.229-5.251 6.104-17.155 6.81-23.259.374-3.226-.78-9.345.054-12.488.75-2.828 1.45-5.676 2.05-8.54 1.254-5.997 1.73-12.06 1.332-18.179z" id="q"/></defs><mask id="r" fill="#fff"><use xlink:href="#q"/></mask><use fill="#5E7AA9" xlink:href="#q"/><g mask="url(#r)" fill="#4A312C"><path d="M-32 0h264v244H-32z"/></g></g><g transform="translate(61 85)"><defs><path d="M44.918 17.571c0 9.703-8.25 17.572-21.998 17.572h-2.75C6.423 35.143.923 27.27.923 17.57.923 7.866 2.207 0 21.455 0h2.931c19.248 0 20.532 7.866 20.532 17.571z" id="t"/><path d="M106.486 17.571c0 9.703-8.247 17.572-21.997 17.572h-2.75c-13.748 0-19.248-7.872-19.248-17.572C62.491 7.866 63.775 0 83.023 0h2.932c19.244 0 20.531 7.866 20.531 17.571z" id="v"/><linearGradient x1="50%" y1="0%" x2="50%" y2="100%" id="u"><stop stop-color="#FFF" stop-opacity=".5" offset="0%"/><stop stop-opacity=".5" offset="70.506%"/></linearGradient><filter x="-.8%" y="-2.4%" width="101.6%" height="109.8%" filterUnits="objectBoundingBox" id="s"><feOffset dy="2" in="SourceAlpha" result="shadowOffsetOuter1"/><feColorMatrix values="0 0 0 0 0 0 0 0 0 0 0 0 0 0 0 0 0 0 0.2 0" in="shadowOffsetOuter1" result="shadowMatrixOuter1"/><feMerge><feMergeNode in="shadowMatrixOuter1"/><feMergeNode in="SourceGraphic"/></feMerge></filter></defs><g filter="url(#s)" transform="translate(7 7)"><g fill-rule="evenodd"><g transform="translate(10.795 2.929)"><use fill-opacity=".7" fill="#000" xlink:href="#t"/><use fill="url(#u)" xlink:href="#t" style="mix-blend-mode:screen"/></g><g transform="translate(10.795 2.929)"><use fill-opacity=".7" fill="#000" xlink:href="#v"/><use fill="url(#u)" xlink:href="#v" style="mix-blend-mode:screen"/></g></g><path d="M33.716 41h-2.75c-13.888 0-22.18-7.664-22.18-20.5C8.787 10.127 10.6 0 32.25 0h2.932c21.651 0 23.463 10.127 23.463 20.5 0 12.069-10.25 20.5-24.93 20.5zM32.25 5.854c-17.6 0-17.6 6.464-17.6 14.646 0 6.68 2.83 14.643 16.316 14.643h2.75c11.226 0 19.066-6.021 19.066-14.643 0-8.182 0-14.646-17.6-14.646H32.25zM95.284 41h-2.75c-13.888 0-22.18-7.664-22.18-20.5 0-10.373 1.813-20.5 23.464-20.5h2.932c21.651 0 23.463 10.127 23.463 20.5 0 12.069-10.25 20.5-24.929 20.5zM93.818 5.854c-17.6 0-17.6 6.464-17.6 14.646 0 6.68 2.833 14.643 16.316 14.643h2.75c11.226 0 19.066-6.021 19.066-14.643 0-8.182 0-14.646-17.6-14.646h-2.932z" fill="#252C2F" fill-rule="nonzero"/><path d="M2.932 5.857C3.618 5.172 11.123 0 32.25 0c17.714 0 21.464 1.88 27.14 4.72l.415.21c.395.143 2.413.844 4.773.921a16.54 16.54 0 004.528-.881C75.584 1.748 81.926 0 96.75 0c21.127 0 28.632 5.172 29.318 5.857A2.928 2.928 0 01129 8.786v2.928c0 1.62-1.31 2.929-2.932 2.929 0 0-5.863 0-5.863 2.928 0 2.929-2.932-4.237-2.932-5.857V8.862c-3.576-1.4-9.976-3.005-20.523-3.005-11.75 0-17.602 1.131-22.622 3.247l.056.139-2.496 1.007 2.493 1.008-2.2 5.43-2.717-1.1a12.721 12.721 0 00-1.493-.457c-2.024-.51-4.106-.666-5.946-.28a7.735 7.735 0 00-1.877.642l-2.622 1.31-2.623-5.238 2.622-1.31.006-.003-2.512-1.015.08-.198C50.57 6.976 46.58 5.857 32.25 5.857c-10.546 0-16.947 1.604-20.523 3.004v2.853c0 1.62-2.932 8.786-2.932 5.857 0-2.928-5.863-2.928-5.863-2.928A2.93 2.93 0 010 11.714V8.786a2.93 2.93 0 012.932-2.929z" fill="#252C2F" fill-rule="nonzero"/></g></g></g></g></g></svg>