<svg xmlns="http://www.w3.org/2000/svg" viewBox="0 0 177.778 100"><path d="M31.941 62.825h25.65v-25.65h-25.65zm20.713-15.293h-5.42v-5.42h5.42zm-15.777-5.42H42.3v10.356h10.354v5.42H36.877zm37.417-4.937A12.825 12.825 0 1087.119 50a12.84 12.84 0 00-12.825-12.825zm0 20.713A7.888 7.888 0 1182.182 50a7.9 7.9 0 01-7.888 7.888zm58.719-20.713A12.825 12.825 0 10145.837 50a12.84 12.84 0 00-12.824-12.825zm0 20.713A7.888 7.888 0 11140.9 50a7.9 7.9 0 01-7.887 7.888zm-29.36-20.713A12.825 12.825 0 10116.478 50a12.84 12.84 0 00-12.825-12.825zm0 20.713a7.888 7.888 0 117.488-10.356h-7.488v4.936h7.488a7.9 7.9 0 01-7.488 5.42z" fill="#394149"/></svg>